<svg xmlns="http://www.w3.org/2000/svg" width="200" height="200" viewBox="0 0 1200 1200">
  <path d="m160.7 624.8c-6.5-26.9-2.5-53.9 9.3-76.7-20.9-14.9-36.8-37.1-43.3-64-14.4-59.4 22.2-119.3 81.6-133.7 14.2-3.4 28.4-3.9 42.1-1.9 25.2 2 78.7 10.2 157 43.2-93.5-78.2-118.8-134.7-118.8-134.7l0.4 0c-3.7-7.6-6.9-15.6-8.9-24.1-14.4-59.4 22.2-119.3 81.6-133.6 26.9-6.5 53.8-2.5 76.7 9.3 15-21 37.1-36.8 64-43.3 59.5-14.4 119.3 22.2 133.7 81.6 3.4 14.2 3.9 28.5 1.9 42.1-2 25.2-10.2 78.7-43.3 157 78.3-93.6 134.7-118.7 134.7-118.7l0.1 0.4c7.5-3.8 15.5-6.9 24.1-9 59.4-14.3 119.2 22.2 133.6 81.6 6.5 27 2.5 53.9-9.3 76.7 21 14.9 36.8 37.1 43.3 64 14.4 59.5-22.2 119.3-81.6 133.7-14.2 3.4-28.4 3.9-42 1.9-13.8-1.1-36.2-4.1-66.5-12 72.9 60.1 150.1 146.6 168.7 252.9 17.6 101.2-21.1 202.1-115.1 299.8-1.5 1.4-3 2.6-4.6 3.5-7.3 4.1-16.7 3.1-23.1-3-7.8-7.4-8-19.9-0.5-27.6C841.3 1001.9 876.6 912.4 861.3 824.2 844.8 729.4 772.9 650.1 704.8 594.1c41.4 45 54.5 73.9 54.5 73.9l-0.4 0.1c3.9 7.5 6.9 15.6 9 24.1 14.4 59.4-22.2 119.3-81.6 133.6-27 6.5-53.9 2.5-76.8-9.2-14.9 20.9-37 36.7-64 43.3-59.4 14.4-119.3-22.1-133.6-81.6-3.4-14.2-3.9-28.4-1.9-42.1 1.9-25.2 10.2-78.8 43.2-157-78.3 93.5-134.8 118.8-134.8 118.8l0-0.5c-7.5 3.8-15.6 7-24.1 9-59.5 14.4-119.3-22.2-133.7-81.6z" fill="#4caf50"/>
</svg>
